<?xml version="1.0" encoding="utf-8"?>
<!-- Generator: Adobe Illustrator 19.0.0, SVG Export Plug-In . SVG Version: 6.00 Build 0)  -->
<svg version="1.1" xmlns="http://www.w3.org/2000/svg" xmlns:xlink="http://www.w3.org/1999/xlink" x="0px" y="0px"
	 viewBox="0 0 450 500" style="enable-background:new 0 0 450 500;" xml:space="preserve">
<style type="text/css">
	.st0{display:none;}
	.st1{display:inline;}
	.st2{fill:#2B2C34;}
	.st3{fill:#B2B1D8;}
	.st4{fill:#D2D1E9;}
	.st5{fill:#17264E;}
	.st6{fill:#242F65;}
	.st7{fill:#7C69A6;}
	.st8{fill:#A086BE;}
</style>
<g id="Layer_D" class="st0">
	<g id="XMLID_4_" class="st1">
		<g id="XMLID_1_">
			<polygon id="XMLID_9_" points="445.4,333.6 224.8,461.9 4.2,333.6 224.8,205.4 			"/>
			<polygon id="XMLID_2_" points="445.4,333.6 445.4,326.2 422.4,320.3 			"/>
			<polygon id="XMLID_3_" points="26.3,320.8 4.2,333.6 4.2,326.2 			"/>
		</g>
		<polygon id="XMLID_6_" class="st2" points="445.4,326.2 224.8,454.5 4.2,326.2 224.8,198 		"/>
	</g>
</g>
<g id="Layer_C" class="st0">
	<g id="XMLID_32_" class="st1">
		<g id="XMLID_34_">
			<polygon id="XMLID_37_" class="st3" points="445.4,275.5 224.8,403.7 4.2,275.5 224.8,147.2 			"/>
			<polygon id="XMLID_36_" class="st3" points="445.4,275.5 445.4,268.1 422.4,262.1 			"/>
			<polygon id="XMLID_35_" class="st3" points="26.3,262.6 4.2,275.5 4.2,268.1 			"/>
		</g>
		<polygon id="XMLID_33_" class="st4" points="445.4,268.1 224.8,396.3 4.2,268.1 224.8,139.8 		"/>
	</g>
</g>
<g id="Layer_B">
	<g id="XMLID_19_">
		<g id="XMLID_13_">
			<polygon id="XMLID_16_" class="st5" points="445.4,217.3 224.8,345.6 4.2,217.3 224.8,89 			"/>
			<polygon id="XMLID_15_" class="st5" points="445.4,217.3 445.4,209.9 422.4,203.9 			"/>
			<polygon id="XMLID_14_" class="st5" points="26.3,204.4 4.2,217.3 4.2,209.9 			"/>
		</g>
		<polygon id="XMLID_12_" class="st6" points="445.4,209.9 224.8,338.2 4.2,209.9 224.8,81.6 		"/>
	</g>
</g>
<g id="Layer_A" class="st0">
	<g id="XMLID_7_" class="st1">
		<g id="XMLID_10_">
			<polygon id="XMLID_18_" class="st7" points="445.4,157.7 224.8,286 4.2,157.7 224.8,29.4 			"/>
			<polygon id="XMLID_17_" class="st7" points="445.4,157.7 445.4,150.3 422.4,144.3 			"/>
			<polygon id="XMLID_11_" class="st7" points="26.3,144.8 4.2,157.7 4.2,150.3 			"/>
		</g>
		<polygon id="XMLID_8_" class="st8" points="445.4,150.3 224.8,278.6 4.2,150.3 224.8,22 		"/>
	</g>
</g>
</svg>
